<?xml version="1.0" encoding="UTF-8"?>
<svg xmlns="http://www.w3.org/2000/svg" xmlns:xlink="http://www.w3.org/1999/xlink" width="457.58pt" height="511.51pt" viewBox="0 0 457.58 511.51" version="1.1">
<defs>
<clipPath id="clip1">
  <path d="M 415 102 L 457.578125 102 L 457.578125 145 L 415 145 Z M 415 102 "/>
</clipPath>
<clipPath id="clip2">
  <path d="M 208 486 L 234 486 L 234 511.511719 L 208 511.511719 Z M 208 486 "/>
</clipPath>
<clipPath id="clip3">
  <path d="M 334 491 L 347 491 L 347 511.511719 L 334 511.511719 Z M 334 491 "/>
</clipPath>
</defs>
<g id="surface1">
<path style=" stroke:none;fill-rule:nonzero;fill:rgb(13.299561%,11.799622%,12.199402%);fill-opacity:1;" d="M 154.628906 132.375 C 158.207031 132.707031 161.714844 133.242188 165.230469 133.3125 C 175.15625 133.519531 184.644531 131.1875 193.792969 127.566406 C 206.863281 122.390625 219.1875 123.980469 231.011719 131.121094 C 236.253906 134.289063 241.9375 139.472656 244.523438 143.347656 C 241.195313 141.199219 237.871094 139.875 234.320313 139.09375 C 228.6875 137.851563 222.996094 137.820313 217.285156 138.199219 C 210.296875 138.667969 203.519531 140.292969 196.695313 141.734375 C 188.292969 143.507813 179.957031 142.464844 171.789063 140.027344 C 166.402344 138.421875 161.277344 136.195313 156.386719 133.429688 C 155.796875 133.09375 155.222656 132.734375 154.628906 132.375 "/>
<path style=" stroke:none;fill-rule:nonzero;fill:rgb(100%,100%,100%);fill-opacity:1;" d="M 151.6875 318.683594 C 149.296875 313.976563 146.988281 309.421875 144.671875 304.863281 C 140.300781 296.269531 135.9375 287.664063 131.53125 279.085938 C 131.046875 278.140625 131.25 277.761719 132.164063 277.316406 C 135.21875 275.835938 138.230469 274.261719 141.253906 272.71875 C 143.507813 271.566406 145.757813 270.402344 148.3125 269.085938 C 134.621094 260.199219 121.195313 251.484375 107.515625 242.601563 C 106.667969 258.921875 105.84375 274.863281 105 291.132813 C 110.976563 288.113281 116.609375 285.265625 122.335938 282.375 C 129.300781 296.011719 136.183594 309.484375 143.105469 323.042969 C 146.003906 321.570313 148.757813 320.171875 151.6875 318.683594 "/>
<path style=" stroke:none;fill-rule:nonzero;fill:rgb(2.69928%,40.79895%,20.799255%);fill-opacity:1;" d="M 215.953125 308.273438 C 209.492188 328.601563 197.777344 345.40625 180.039063 358.082031 C 167.492188 367.050781 153.539063 372.757813 138.195313 374.523438 C 108.738281 377.90625 83.011719 369.476563 61.417969 349.113281 C 47.355469 335.847656 38.390625 319.574219 34.332031 300.664063 C 32.523438 292.25 32.078125 283.726563 32.59375 275.125 C 33.515625 259.839844 38.148438 245.730469 45.835938 232.582031 C 45.960938 232.367188 46.09375 232.15625 46.21875 231.941406 C 38.800781 223.132813 31.984375 213.6875 25.773438 203.6875 C 25.347656 204.238281 24.929688 204.796875 24.515625 205.355469 C 16.757813 215.832031 10.929688 227.355469 6.75 239.695313 C 1.449219 255.335938 -0.628906 271.421875 0.164063 287.914063 C 0.523438 295.40625 1.332031 302.835938 3 310.132813 C 8.515625 334.210938 19.835938 355.15625 37.882813 372.101563 C 65.933594 398.4375 99.359375 409.691406 137.660156 406.507813 C 147.925781 405.652344 157.824219 403.109375 167.253906 398.988281 C 184.683594 391.371094 199.914063 380.480469 213.585938 367.328125 C 215.855469 365.144531 218.269531 363.109375 220.621094 361.015625 L 220.621094 360.421875 C 220.683594 360.5625 220.746094 360.703125 220.808594 360.847656 C 220.746094 360.902344 220.683594 360.960938 220.621094 361.015625 L 220.621094 362.855469 C 220.621094 372.609375 220.589844 382.367188 220.628906 392.125 C 220.664063 402.605469 230.207031 410.136719 240.449219 407.828125 C 247.898438 406.148438 252.980469 399.761719 252.976563 392.027344 C 252.964844 363.460938 252.9375 334.894531 252.921875 306.324219 C 250.472656 306.582031 248.035156 306.816406 245.605469 307.035156 C 235.425781 307.941406 225.542969 308.34375 215.953125 308.273438 "/>
<path style=" stroke:none;fill-rule:nonzero;fill:rgb(2.69928%,40.79895%,20.799255%);fill-opacity:1;" d="M 220.621094 360.421875 L 220.621094 361.015625 C 220.683594 360.957031 220.746094 360.902344 220.808594 360.847656 C 220.746094 360.703125 220.683594 360.5625 220.621094 360.421875 "/>
<path style=" stroke:none;fill-rule:nonzero;fill:rgb(2.69928%,40.79895%,20.799255%);fill-opacity:1;" d="M 378.34375 284.40625 C 375.675781 290.625 371.59375 295.941406 367.25 301.0625 C 359.652344 310.023438 351.039063 317.984375 342.546875 326.058594 C 331.441406 336.609375 320.328125 347.148438 309.222656 357.695313 C 299.332031 367.089844 289.445313 376.488281 279.5625 385.894531 C 276.925781 388.40625 274.21875 390.859375 272.566406 394.210938 C 270.941406 397.496094 271.4375 400.898438 273.878906 403.644531 C 276.664063 406.777344 280.277344 407.671875 284.257813 407.671875 C 319.492188 407.675781 354.726563 407.671875 389.960938 407.671875 C 390.402344 407.671875 390.847656 407.675781 391.289063 407.652344 C 395.371094 407.4375 399 404.507813 399.929688 400.761719 C 401.660156 393.796875 396.167969 388.371094 390.171875 388.40625 C 361.882813 388.558594 333.597656 388.476563 305.3125 388.480469 C 304.683594 388.480469 304.058594 388.480469 303.433594 388.480469 C 303.378906 388.359375 303.324219 388.238281 303.269531 388.117188 C 303.5625 387.808594 303.839844 387.476563 304.152344 387.1875 C 308.84375 382.828125 313.542969 378.484375 318.234375 374.128906 C 334.433594 359.085938 350.601563 344.003906 366.847656 329.011719 C 374.28125 322.148438 381.535156 315.152344 387.433594 306.871094 C 396.007813 294.832031 400.722656 281.851563 400.550781 267.796875 C 394.078125 270.605469 387.542969 273.261719 380.957031 275.769531 C 380.410156 278.699219 379.558594 281.578125 378.34375 284.40625 "/>
<path style=" stroke:none;fill-rule:nonzero;fill:rgb(2.69928%,40.79895%,20.799255%);fill-opacity:1;" d="M 420.15625 282.535156 C 420.121094 282.535156 420.089844 282.535156 420.054688 282.535156 C 420.054688 319.097656 420.050781 355.660156 420.0625 392.222656 C 420.0625 403.851563 431.496094 411.542969 442.128906 407.089844 C 448.257813 404.523438 451.886719 398.78125 451.878906 391.585938 C 451.8125 341.554688 451.734375 291.523438 451.671875 241.488281 C 441.480469 247.675781 430.945313 253.421875 420.164063 258.730469 C 420.160156 266.664063 420.15625 274.601563 420.15625 282.535156 "/>
<path style=" stroke:none;fill-rule:nonzero;fill:rgb(68.998718%,12.199402%,13.699341%);fill-opacity:1;" d="M 58.480469 245.367188 C 53.4375 255.105469 50.410156 266.105469 49.996094 277.863281 C 48.492188 320.398438 81.617188 355.738281 124.101563 357.082031 C 157.503906 358.140625 186.929688 337.675781 198.160156 307.570313 C 139.964844 303.359375 93.496094 280.671875 58.480469 245.367188 "/>
<path style=" stroke:none;fill-rule:nonzero;fill:rgb(3.09906%,57.998657%,27.799988%);fill-opacity:1;" d="M 251.066406 259.59375 C 248.996094 247.757813 245.121094 236.507813 239.679688 225.796875 C 232.355469 211.386719 222.828125 198.652344 210.871094 187.742188 C 200.082031 177.898438 187.984375 170.074219 174.644531 164.191406 C 158.765625 157.1875 142.148438 153.714844 124.773438 154.390625 C 118.550781 154.632813 112.308594 155.074219 106.140625 155.910156 C 92.679688 157.738281 80.015625 162.128906 67.933594 168.324219 C 51.15625 176.9375 37.15625 188.796875 25.773438 203.6875 C 31.984375 213.6875 38.800781 223.132813 46.21875 231.941406 C 51.609375 222.902344 58.4375 215.050781 66.601563 208.386719 C 78.023438 199.0625 90.867188 192.578125 105.269531 189.269531 C 112.191406 187.675781 119.203125 186.890625 126.332031 186.960938 C 152.382813 187.234375 174.851563 196.398438 193.328125 214.746094 C 207.253906 228.574219 215.820313 245.433594 219.242188 264.761719 C 220.1875 270.105469 220.703125 275.597656 220.675781 281.019531 C 220.632813 288.28125 219.460938 295.488281 217.617188 302.535156 C 217.105469 304.480469 216.550781 306.390625 215.953125 308.273438 C 225.542969 308.34375 235.425781 307.941406 245.605469 307.035156 C 248.035156 306.816406 250.472656 306.582031 252.925781 306.324219 C 252.917969 297.984375 252.910156 289.648438 252.910156 281.308594 C 252.910156 274.011719 252.320313 266.765625 251.066406 259.59375 "/>
<path style=" stroke:none;fill-rule:nonzero;fill:rgb(3.09906%,57.998657%,27.799988%);fill-opacity:1;" d="M 362.925781 209.699219 C 353.800781 205.445313 344.105469 204.402344 334.121094 205.167969 C 325.921875 205.796875 318.167969 207.847656 310.835938 211.550781 C 299.199219 217.417969 289.707031 225.578125 283.558594 237.242188 C 280.871094 242.335938 278.949219 247.664063 279.050781 253.554688 C 279.089844 255.875 279.789063 257.863281 281.273438 259.644531 C 284.273438 263.253906 292.390625 264.660156 295.515625 258.371094 C 296.429688 256.535156 297.28125 254.632813 297.851563 252.667969 C 300.894531 242.191406 306.753906 233.898438 316.296875 228.378906 C 325.691406 222.945313 335.820313 221.792969 346.367188 223.378906 C 354.777344 224.644531 362.148438 228.1875 368.261719 234.113281 C 376.136719 241.746094 380.445313 251.101563 381.472656 262.023438 C 381.910156 266.695313 381.796875 271.289063 380.957031 275.769531 C 387.542969 273.261719 394.078125 270.605469 400.550781 267.800781 C 400.503906 263.933594 400.089844 259.992188 399.28125 255.964844 C 394.980469 234.496094 382.8125 218.972656 362.925781 209.699219 "/>
<path style=" stroke:none;fill-rule:nonzero;fill:rgb(3.09906%,57.998657%,27.799988%);fill-opacity:1;" d="M 451.664063 204.011719 C 451.660156 193.121094 451.808594 182.226563 451.597656 171.34375 C 451.414063 161.929688 442.199219 154.847656 432.496094 156.96875 C 425.261719 158.550781 420.105469 165.097656 420.121094 172.707031 C 420.183594 201.382813 420.171875 230.054688 420.160156 258.730469 C 430.945313 253.421875 441.480469 247.675781 451.671875 241.492188 C 451.667969 240.429688 451.667969 239.367188 451.664063 238.304688 C 451.652344 226.871094 451.664063 215.441406 451.664063 204.011719 "/>
<g clip-path="url(#clip1)" clip-rule="nonzero">
<path style=" stroke:none;fill-rule:nonzero;fill:rgb(3.09906%,57.998657%,27.799988%);fill-opacity:1;" d="M 436.46875 102.3125 C 425.648438 101.601563 415.285156 111.460938 415.273438 123.210938 C 415.265625 134.566406 424.589844 144.378906 436.132813 144.429688 C 447.757813 144.480469 457.285156 135.132813 457.570313 123.914063 C 457.886719 111.410156 447.039063 101.601563 436.46875 102.3125 "/>
</g>
<path style=" stroke:none;fill-rule:nonzero;fill:rgb(92.498779%,12.199402%,14.898682%);fill-opacity:1;" d="M 128.117188 204.066406 C 98.117188 203.46875 71.535156 220.179688 58.480469 245.367188 C 93.496094 280.675781 139.964844 303.359375 198.160156 307.570313 C 200.984375 299.996094 202.65625 291.816406 202.953125 283.210938 C 204.425781 240.207031 170.648438 205.0625 128.117188 204.066406 "/>
<path style=" stroke:none;fill-rule:nonzero;fill:rgb(100%,100%,100%);fill-opacity:1;" d="M 151.6875 318.683594 C 149.296875 313.976563 146.988281 309.421875 144.671875 304.863281 C 140.300781 296.269531 135.9375 287.664063 131.53125 279.085938 C 131.046875 278.140625 131.25 277.761719 132.164063 277.316406 C 135.21875 275.835938 138.230469 274.261719 141.253906 272.71875 C 143.507813 271.566406 145.757813 270.402344 148.3125 269.085938 C 134.621094 260.199219 121.195313 251.484375 107.515625 242.601563 C 106.667969 258.921875 105.84375 274.863281 105 291.132813 C 110.976563 288.113281 116.609375 285.265625 122.335938 282.375 C 129.300781 296.011719 136.183594 309.488281 143.105469 323.042969 C 146.003906 321.570313 148.757813 320.171875 151.6875 318.683594 "/>
<path style=" stroke:none;fill-rule:nonzero;fill:rgb(2.69928%,40.79895%,20.799255%);fill-opacity:1;" d="M 233.445313 465.097656 C 236.929688 467.140625 240.046875 468.964844 243.105469 470.761719 L 243.105469 460.710938 C 239.746094 462.238281 236.621094 463.65625 233.445313 465.097656 M 318.714844 457.207031 C 318.6875 457.296875 318.65625 457.386719 318.628906 457.480469 C 318.949219 457.691406 319.28125 457.886719 319.585938 458.117188 C 321.078125 459.230469 322.675781 460.234375 324.015625 461.503906 C 325.460938 462.871094 324.902344 465.164063 323.121094 465.988281 C 321.992188 466.503906 320.871094 467.03125 319.679688 467.582031 C 322.742188 469.046875 325.628906 470.425781 328.519531 471.808594 L 328.519531 457.207031 Z M 207.597656 464.527344 C 210.804688 462.835938 213.773438 461.269531 216.773438 459.6875 C 217.65625 460.828125 218.378906 461.695313 219.011719 462.625 C 219.1875 462.882813 219.238281 463.378906 219.113281 463.660156 C 217.457031 467.359375 216.933594 471.105469 218.722656 475.046875 C 218.011719 475.398438 217.417969 475.691406 216.738281 476.027344 C 214.765625 472.082031 215.121094 468.066406 215.863281 463.792969 C 212.316406 464.867188 209.851563 467.367188 207.132813 469.394531 C 205.511719 468.523438 204.804688 467.320313 204.921875 465.4375 C 205.089844 462.753906 204.964844 460.054688 204.964844 457.28125 C 202.792969 457.441406 201.378906 458.539063 200.171875 459.945313 C 197.769531 462.742188 196.515625 465.894531 197.542969 469.617188 C 198.347656 472.53125 199.671875 473.304688 202.628906 472.640625 C 202.882813 473.285156 203.144531 473.949219 203.398438 474.597656 C 201.199219 476.238281 197.816406 475.527344 196.371094 473.003906 C 193.886719 468.660156 194.253906 464.292969 196.871094 460.171875 C 197.964844 458.449219 199.480469 456.980469 200.871094 455.460938 C 201.191406 455.113281 201.804688 454.863281 202.28125 454.863281 C 220.90625 454.839844 239.53125 454.851563 258.160156 454.859375 C 258.253906 454.859375 258.347656 454.898438 258.5625 454.945313 C 258.640625 455.34375 258.726563 455.792969 258.835938 456.375 C 262.824219 454.082031 266.316406 454.625 269.5 458.410156 L 269.5 454.929688 L 333.402344 454.929688 L 333.402344 457.03125 C 332.8125 457.09375 332.238281 457.152344 331.480469 457.230469 L 331.480469 475.199219 C 330.089844 475.441406 329.003906 475.449219 327.855469 474.667969 C 324.320313 472.261719 320.390625 470.695313 316.199219 469.902344 C 314.613281 469.601563 314.683594 468.410156 314.40625 467.398438 C 314.109375 466.3125 315.179688 466.320313 315.777344 466.046875 C 317.734375 465.152344 319.71875 464.320313 321.886719 463.378906 C 319.859375 460.902344 317.257813 460.105469 314.296875 459.632813 C 314.222656 458.914063 314.144531 458.113281 314.054688 457.226563 L 310.640625 457.226563 C 310.640625 457.882813 310.640625 458.457031 310.640625 459.03125 C 310.644531 463.710938 310.644531 468.394531 310.644531 473.074219 C 310.648438 475.636719 310.648438 475.636719 307.894531 475.1875 L 307.894531 457.21875 L 295.09375 457.21875 L 295.09375 464.523438 C 296.894531 463.867188 298.621094 463.242188 300.347656 462.609375 C 302.023438 461.992188 303.910156 463.015625 304.128906 464.8125 C 304.757813 470.015625 302.101563 475.019531 295.859375 475.230469 C 291.523438 475.378906 288.242188 473.589844 285.914063 470.019531 C 285.140625 468.835938 284.523438 467.53125 283.9375 466.238281 C 283.046875 464.269531 283.085938 464.253906 285.082031 463.054688 C 285.804688 464.59375 286.441406 466.175781 287.269531 467.65625 C 288.808594 470.414063 291.070313 472.234375 294.292969 472.738281 C 298.316406 473.363281 302.636719 469.183594 301.097656 465.121094 C 299.351563 465.8125 297.601563 466.5 295.855469 467.203125 C 294.175781 467.878906 292.234375 466.566406 292.214844 464.699219 C 292.195313 462.246094 292.210938 459.792969 292.210938 457.238281 L 279.402344 457.238281 L 279.402344 475.25 L 276.773438 475.25 C 276.773438 472.277344 276.773438 469.425781 276.773438 466.574219 C 276.769531 463.863281 276.734375 461.152344 276.785156 458.441406 C 276.808594 457.398438 276.429688 457.042969 275.410156 457.121094 C 274.441406 457.195313 273.460938 457.136719 272.339844 457.136719 L 272.339844 475.046875 L 269.597656 475.046875 C 269.570313 474.550781 269.519531 474.027344 269.515625 473.507813 C 269.511719 470.351563 269.523438 467.199219 269.515625 464.042969 C 269.507813 461.515625 267.4375 458.621094 265.074219 457.789063 C 263.398438 457.199219 261.890625 457.347656 260.582031 458.933594 C 261.449219 459.046875 262.246094 459.113281 263.027344 459.269531 C 265.367188 459.738281 266.453125 461.558594 265.898438 463.863281 C 265.210938 466.734375 263.15625 468.277344 260.632813 469.527344 C 260.078125 468.808594 259.550781 468.121094 259.125 467.566406 C 260.433594 466.402344 261.769531 465.449219 262.796875 464.234375 C 264.046875 462.761719 263.570313 461.679688 261.675781 461.363281 C 260.523438 461.171875 259.347656 461.148438 257.921875 461.027344 C 257.617188 460.207031 257.253906 459.226563 256.820313 458.054688 C 255.265625 458.976563 253.886719 460.453125 252.851563 462.203125 C 251.042969 465.257813 250.167969 468.449219 252.089844 471.828125 C 253.234375 473.847656 256.015625 474.765625 258.199219 473.859375 C 258.421875 473.769531 258.648438 473.699219 258.886719 473.609375 C 259.148438 476.484375 258.964844 476.6875 256.257813 476.636719 C 251.632813 476.546875 248.644531 473.449219 248.441406 468.621094 C 248.289063 465.007813 249.738281 462.027344 251.917969 459.308594 C 252.429688 458.671875 253.003906 458.082031 253.746094 457.25 L 245.980469 457.25 C 245.945313 457.8125 245.886719 458.378906 245.886719 458.945313 C 245.878906 463.875 245.898438 468.804688 245.855469 473.730469 C 245.851563 474.273438 245.484375 475.28125 245.292969 475.277344 C 244.53125 475.273438 243.507813 475.199219 243.046875 474.707031 C 239.960938 471.410156 236.21875 469.277344 231.914063 468.0625 C 229.355469 467.335938 229.351563 467.355469 228.683594 464.636719 C 233.117188 461.566406 238.273438 459.839844 243.242188 457.75 C 243.199219 457.601563 243.15625 457.453125 243.109375 457.308594 L 225.5625 457.308594 C 225.535156 457.851563 225.488281 458.421875 225.488281 458.992188 C 225.484375 463.722656 225.488281 468.453125 225.488281 473.183594 C 225.492188 475.605469 225.304688 475.742188 222.707031 475.121094 L 222.707031 457.132813 C 221.414063 457.132813 220.25 457.132813 219.085938 457.132813 C 215.683594 457.136719 212.28125 457.164063 208.882813 457.117188 C 207.9375 457.105469 207.558594 457.390625 207.582031 458.371094 C 207.636719 460.378906 207.597656 462.390625 207.597656 464.527344 "/>
<path style=" stroke:none;fill-rule:nonzero;fill:rgb(2.69928%,40.79895%,20.799255%);fill-opacity:1;" d="M 169.480469 465.113281 C 172.90625 467.105469 176.035156 468.925781 179.125 470.71875 L 179.125 460.714844 C 175.746094 462.253906 172.625 463.679688 169.480469 465.113281 M 133.023438 458.066406 L 133.023438 454.96875 C 133.546875 454.917969 133.925781 454.847656 134.300781 454.847656 C 138.734375 454.839844 143.171875 454.824219 147.605469 454.867188 C 148.164063 454.871094 148.722656 455.210938 149.578125 455.492188 C 152.824219 453.800781 156.09375 454.105469 159.019531 457.5 C 159.097656 456.46875 159.15625 455.71875 159.21875 454.917969 L 183.855469 454.917969 L 183.855469 457.101563 C 181.84375 456.714844 181.832031 457.90625 181.847656 459.332031 C 181.90625 464.058594 181.871094 468.792969 181.871094 473.519531 C 181.871094 474.058594 181.871094 474.59375 181.871094 475.1875 C 180.5625 475.5 179.628906 475.421875 178.652344 474.363281 C 175.378906 470.832031 171.277344 468.636719 166.546875 467.796875 C 164.941406 467.515625 165.308594 466.292969 164.894531 465.417969 C 164.441406 464.464844 165.238281 464.175781 165.820313 463.902344 C 169.828125 462.039063 173.851563 460.210938 177.867188 458.363281 C 178.34375 458.144531 178.789063 457.859375 179.253906 457.605469 C 179.214844 457.488281 179.175781 457.371094 179.136719 457.257813 C 178.722656 457.214844 178.308594 457.140625 177.894531 457.140625 C 173.015625 457.132813 168.136719 457.167969 163.261719 457.113281 C 162.101563 457.097656 161.730469 457.425781 161.742188 458.613281 C 161.804688 463.589844 161.765625 468.566406 161.765625 473.542969 C 161.765625 474.074219 161.765625 474.609375 161.765625 475.25 L 159.132813 475.25 C 159.132813 473.984375 159.132813 472.722656 159.132813 471.460938 C 159.132813 468.75 159.160156 466.039063 159.125 463.332031 C 159.078125 460.078125 155.511719 456.945313 152.601563 457.558594 C 150.835938 457.933594 149.679688 459.460938 149.957031 461.054688 C 150.28125 462.917969 151.652344 463.796875 153.679688 463.433594 C 154.058594 463.367188 154.425781 463.261719 154.878906 463.15625 C 155.261719 463.984375 155.632813 464.773438 155.992188 465.546875 C 154.105469 466.894531 151.894531 466.964844 150.007813 465.785156 C 147.523438 464.234375 146.746094 461.890625 147.46875 458.128906 C 147.390625 458.089844 147.28125 458 147.234375 458.023438 C 143.425781 459.988281 140.695313 465.605469 141.4375 469.605469 C 142.144531 473.429688 145.820313 475.246094 149.078125 473.605469 C 149.65625 476.144531 149.25 476.558594 146.71875 476.664063 C 141.074219 476.894531 139.035156 472.539063 138.734375 468.695313 C 138.4375 464.90625 140.085938 461.832031 142.402344 459.023438 C 142.777344 458.570313 143.1875 458.140625 143.570313 457.691406 C 143.628906 457.625 143.628906 457.511719 143.730469 457.164063 C 141.191406 457.164063 138.71875 457.132813 136.25 457.222656 C 136.054688 457.230469 135.730469 458.058594 135.726563 458.507813 C 135.6875 463.433594 135.703125 468.363281 135.699219 473.292969 C 135.699219 473.832031 135.699219 474.371094 135.699219 475.03125 L 133.070313 475.03125 C 133.070313 471.421875 133.078125 467.839844 133.070313 464.253906 C 133.0625 461.324219 130.722656 458.371094 127.917969 457.625 C 126.40625 457.222656 125.21875 457.605469 124.082031 458.910156 C 124.945313 459.039063 125.6875 459.117188 126.417969 459.257813 C 128.855469 459.742188 129.96875 461.558594 129.359375 463.949219 C 128.648438 466.738281 126.609375 468.257813 124.125 469.535156 C 123.566406 468.824219 123.027344 468.140625 122.5625 467.550781 C 123.816406 466.472656 125.132813 465.578125 126.140625 464.417969 C 127.5625 462.78125 127.023438 461.609375 124.894531 461.320313 C 124.359375 461.246094 123.808594 461.15625 123.277344 461.203125 C 121.519531 461.363281 120.78125 460.347656 120.460938 458.851563 C 121.8125 456.566406 123.753906 455.054688 126.480469 454.972656 C 129.085938 454.894531 131.175781 456.121094 133.023438 458.066406 "/>
<path style=" stroke:none;fill-rule:nonzero;fill:rgb(2.69928%,40.79895%,20.799255%);fill-opacity:1;" d="M 359.878906 457.234375 C 360.878906 458.890625 361.835938 460.476563 362.816406 462.109375 C 364.199219 460.796875 365.800781 460.671875 367.507813 461.738281 L 367.507813 457.234375 Z M 377.914063 465.105469 C 381.179688 466.996094 384.398438 468.859375 387.617188 470.71875 L 387.617188 460.824219 C 384.21875 462.324219 381.015625 463.738281 377.914063 465.105469 M 387.5625 457.203125 L 370.394531 457.203125 L 370.394531 475.09375 L 367.609375 475.09375 C 367.609375 473.042969 367.609375 470.996094 367.609375 468.949219 C 367.609375 467.960938 367.671875 466.972656 367.582031 465.992188 C 367.484375 464.925781 367.105469 463.917969 365.90625 463.664063 C 364.757813 463.417969 364.0625 464.140625 363.570313 465.074219 C 362.695313 466.726563 361.914063 468.429688 360.964844 470.035156 C 359.527344 472.476563 357.746094 473.050781 355.421875 472.304688 C 353.5625 471.710938 354.003906 470.382813 354.023438 469.085938 C 357.117188 470.574219 358.101563 470.15625 359.558594 466.976563 C 361.453125 462.851563 358.648438 458.832031 354.898438 457.25 C 354.394531 457.039063 353.632813 457.285156 353.035156 457.472656 C 348.792969 458.816406 344.929688 465.578125 347.226563 470.507813 C 348.300781 472.808594 349.359375 473.339844 351.9375 472.570313 C 352.210938 473.25 352.488281 473.945313 352.757813 474.613281 C 350.820313 476.472656 346.820313 475.066406 345.660156 472.992188 C 343.601563 469.308594 343.5 465.460938 345.351563 461.835938 C 346.550781 459.484375 348.558594 457.53125 350.269531 455.457031 C 350.558594 455.105469 351.191406 454.867188 351.664063 454.867188 C 367.476563 454.839844 383.292969 454.847656 399.105469 454.851563 C 399.246094 454.851563 399.390625 454.90625 399.636719 454.957031 L 399.636719 457.039063 C 398.945313 457.097656 398.234375 457.15625 397.40625 457.226563 L 397.40625 475.253906 L 394.746094 475.253906 C 394.746094 472.828125 394.746094 470.519531 394.746094 468.210938 C 394.746094 465.011719 394.699219 461.808594 394.769531 458.605469 C 394.796875 457.425781 394.414063 457 393.25 457.121094 C 392.425781 457.203125 391.589844 457.136719 390.585938 457.136719 C 390.546875 457.75 390.488281 458.265625 390.488281 458.78125 C 390.480469 463.804688 390.496094 468.828125 390.464844 473.855469 C 390.464844 474.339844 390.210938 475.234375 390.054688 475.234375 C 389.277344 475.253906 388.183594 475.324219 387.761719 474.867188 C 384.128906 470.894531 379.597656 468.644531 374.433594 467.480469 C 374.089844 467.402344 373.679688 467.058594 373.550781 466.734375 C 373.261719 466.019531 373.136719 465.242188 372.863281 464.171875 C 377.828125 461.996094 382.785156 459.820313 387.742188 457.644531 C 387.679688 457.496094 387.621094 457.351563 387.5625 457.203125 "/>
<path style=" stroke:none;fill-rule:nonzero;fill:rgb(2.69928%,40.79895%,20.799255%);fill-opacity:1;" d="M 114.855469 475.164063 C 115.066406 471.460938 112.777344 469.042969 110.203125 466.949219 C 109.144531 466.085938 107.578125 465.640625 106.183594 465.457031 C 104.355469 465.214844 103.0625 466.667969 103.164063 468.410156 C 103.261719 470.03125 104.695313 471.074219 106.539063 470.851563 C 106.878906 470.8125 107.207031 470.730469 107.652344 470.648438 C 107.796875 471.03125 107.960938 471.421875 108.097656 471.820313 C 108.226563 472.191406 108.320313 472.570313 108.429688 472.9375 C 106.378906 474.164063 103.789063 473.84375 101.894531 472.148438 C 100.261719 470.6875 99.828125 468.027344 100.855469 465.742188 C 101.816406 463.605469 104.171875 462.339844 106.535156 462.585938 C 110.046875 462.949219 112.496094 464.933594 114.652344 467.960938 L 114.652344 457.238281 L 90.058594 457.238281 C 90.492188 459.121094 92.292969 460.453125 94.398438 460.480469 C 95.253906 460.492188 96.050781 460.347656 96.789063 461.191406 C 97.695313 462.226563 97.882813 463.054688 97.234375 464.296875 C 95.375 467.867188 95.347656 471.554688 96.886719 475.335938 C 96.316406 475.636719 95.761719 475.929688 95.222656 476.214844 C 93.113281 473.542969 92.996094 470.628906 94.675781 463.113281 C 91.386719 462.289063 88.332031 461.039063 87.023438 457.503906 C 84.875 458.292969 83.105469 461.335938 83.710938 463.425781 C 83.851563 463.914063 84.683594 464.59375 85.09375 464.53125 C 86.011719 464.390625 86.867188 463.847656 87.738281 463.441406 C 88.113281 463.265625 88.445313 462.902344 88.828125 462.847656 C 90.800781 462.585938 91.265625 462.804688 91.4375 464.808594 C 91.585938 466.535156 91.601563 468.402344 91.09375 470.027344 C 90.015625 473.476563 85.214844 475.023438 81.488281 473.335938 C 79.898438 472.617188 78.492188 471.683594 77.796875 469.9375 C 77.433594 469.027344 76.890625 468.191406 76.425781 467.324219 C 75.535156 465.65625 75.558594 465.574219 77.183594 464.566406 C 78.097656 466.121094 78.929688 467.738281 79.949219 469.222656 C 81.433594 471.386719 84.683594 472.039063 86.960938 470.757813 C 88.753906 469.746094 89.433594 467.78125 88.628906 465.765625 C 87.871094 466.183594 87.164063 466.710938 86.367188 466.992188 C 83.128906 468.140625 80.300781 465.550781 80.96875 461.925781 C 81.265625 460.335938 82.066406 458.839844 82.699219 457.136719 L 74.324219 457.136719 L 74.324219 454.925781 L 119.527344 454.925781 L 119.527344 457.039063 C 118.949219 457.097656 118.378906 457.15625 117.648438 457.230469 C 117.621094 457.753906 117.574219 458.277344 117.574219 458.800781 C 117.570313 463.582031 117.570313 468.363281 117.570313 473.144531 C 117.570313 475.59375 117.449219 475.691406 114.855469 475.164063 "/>
<g clip-path="url(#clip2)" clip-rule="nonzero">
<path style=" stroke:none;fill-rule:nonzero;fill:rgb(13.299561%,11.799622%,12.199402%);fill-opacity:1;" d="M 223.882813 497.863281 C 223.890625 495.480469 223.097656 494.152344 221.640625 493.675781 C 220.234375 493.21875 218.636719 493.820313 217.730469 495.554688 C 217.003906 496.957031 216.511719 498.546875 216.269531 500.109375 C 216.015625 501.757813 217.007813 503.332031 218.21875 503.757813 C 219.742188 504.292969 220.878906 503.527344 221.878906 502.5 C 223.246094 501.09375 223.777344 499.339844 223.882813 497.863281 M 224.585938 493.820313 C 224.820313 493.117188 224.972656 492.652344 225.144531 492.128906 L 227.359375 492.128906 C 226.71875 495.140625 226.050781 498.082031 225.492188 501.042969 C 225.34375 501.835938 225.519531 502.695313 225.550781 503.523438 C 226.4375 503.234375 227.488281 503.160156 228.183594 502.625 C 232.371094 499.390625 232.050781 492.710938 227.578125 489.863281 C 223.996094 487.578125 220.210938 487.546875 216.480469 489.425781 C 212.863281 491.25 211.117188 494.472656 210.851563 498.375 C 210.378906 505.292969 214.367188 509.402344 221.347656 509.550781 C 225.039063 509.632813 228.347656 508.871094 231.035156 506.089844 C 231.496094 505.609375 232.546875 505.695313 233.328125 505.519531 C 233.445313 505.691406 233.558594 505.859375 233.675781 506.027344 C 232.542969 507.105469 231.527344 508.351563 230.257813 509.226563 C 225.804688 512.292969 218.082031 512.242188 213.574219 509.246094 C 210.703125 507.34375 209.382813 504.554688 208.925781 501.222656 C 208.097656 495.171875 211.722656 488.835938 217.136719 486.996094 C 222.730469 485.097656 228.59375 486.722656 231.429688 490.960938 C 235.085938 496.425781 232.070313 504.679688 226.003906 505.816406 C 224.230469 506.148438 223.347656 505.703125 222.539063 504 C 221.988281 504.390625 221.46875 504.804688 220.90625 505.152344 C 218.851563 506.421875 216.445313 505.917969 215.039063 503.945313 C 212.304688 500.101563 214.746094 493.113281 219.273438 491.832031 C 221.425781 491.226563 223.105469 492.039063 224.585938 493.820313 "/>
</g>
<path style=" stroke:none;fill-rule:nonzero;fill:rgb(13.299561%,11.799622%,12.199402%);fill-opacity:1;" d="M 246.109375 503.539063 C 248.078125 503.539063 249.898438 503.625 251.703125 503.519531 C 254.074219 503.378906 255.867188 502.09375 256.238281 499.789063 C 256.609375 497.464844 256.585938 495.011719 256.300781 492.667969 C 256.097656 490.972656 254.835938 489.503906 253.058594 489.195313 C 250.816406 488.804688 248.5 488.832031 246.109375 488.667969 Z M 243.792969 486.769531 C 246.878906 486.769531 249.882813 486.621094 252.867188 486.808594 C 256.105469 487.011719 258.515625 489.414063 259.082031 493.292969 C 259.40625 495.515625 259.296875 497.9375 258.773438 500.125 C 257.84375 504.019531 255.46875 505.578125 250.890625 505.824219 C 248.828125 505.9375 246.753906 505.835938 244.6875 505.867188 C 243.972656 505.875 243.601563 505.675781 243.605469 504.875 C 243.628906 499.015625 243.621094 493.160156 243.632813 487.300781 C 243.632813 487.164063 243.710938 487.03125 243.792969 486.769531 "/>
<path style=" stroke:none;fill-rule:nonzero;fill:rgb(13.299561%,11.799622%,12.199402%);fill-opacity:1;" d="M 114.382813 499.722656 C 115.136719 499.625 115.804688 499.539063 116.449219 499.457031 C 118.09375 503.355469 120.941406 504.765625 124.613281 503.574219 C 126.167969 503.074219 127.171875 501.964844 127.160156 500.667969 C 127.148438 499.078125 126.117188 498.273438 124.753906 497.863281 C 122.734375 497.25 120.667969 496.789063 118.664063 496.132813 C 116.375 495.382813 115.109375 493.765625 115.054688 491.773438 C 114.996094 489.632813 115.949219 488.03125 117.859375 487.144531 C 120.546875 485.894531 123.304688 485.9375 125.988281 487.191406 C 127.914063 488.09375 128.976563 489.964844 128.792969 492 C 128.132813 492.03125 127.457031 492.066406 126.820313 492.097656 C 125.257813 488.804688 122.941406 487.75 119.667969 488.785156 C 118.378906 489.191406 117.46875 490.019531 117.445313 491.410156 C 117.425781 492.71875 118.339844 493.441406 119.515625 493.777344 C 121.40625 494.320313 123.320313 494.765625 125.203125 495.332031 C 128.355469 496.273438 129.699219 498.074219 129.519531 500.976563 C 129.375 503.320313 127.304688 505.574219 124.5625 505.878906 C 122.699219 506.085938 120.714844 506.015625 118.886719 505.605469 C 116.078125 504.980469 114.582031 502.851563 114.382813 499.722656 "/>
<path style=" stroke:none;fill-rule:nonzero;fill:rgb(13.299561%,11.799622%,12.199402%);fill-opacity:1;" d="M 166.898438 492.0625 C 166.46875 493.195313 166.054688 494.277344 165.644531 495.363281 C 164.464844 498.484375 163.257813 501.597656 162.125 504.738281 C 161.828125 505.558594 161.441406 505.886719 160.539063 505.886719 C 159.664063 505.886719 159.367188 505.488281 159.09375 504.761719 C 157.636719 500.851563 156.132813 496.960938 154.570313 492.871094 C 154.222656 493.449219 153.96875 493.875 153.714844 494.300781 C 150.707031 493.699219 149.484375 494.660156 149.355469 497.859375 C 149.269531 499.921875 149.335938 501.992188 149.332031 504.0625 C 149.332031 504.59375 149.332031 505.125 149.332031 505.757813 L 147.109375 505.757813 L 147.109375 491.972656 L 148.929688 491.972656 C 149.019531 492.386719 149.109375 492.839844 149.203125 493.289063 C 150.003906 492.75 150.734375 491.875 151.566406 491.773438 C 153.128906 491.582031 154.753906 491.792969 156.34375 491.953125 C 156.605469 491.976563 156.890625 492.574219 157.03125 492.957031 C 158.191406 496.113281 159.324219 499.285156 160.589844 502.800781 C 161.8125 499.464844 163.011719 496.488281 163.972656 493.429688 C 164.472656 491.851563 165.3125 491.597656 166.898438 492.0625 "/>
<g clip-path="url(#clip3)" clip-rule="nonzero">
<path style=" stroke:none;fill-rule:nonzero;fill:rgb(13.299561%,11.799622%,12.199402%);fill-opacity:1;" d="M 344.746094 499.027344 C 344.519531 497.835938 344.46875 496.777344 344.117188 495.832031 C 343.082031 493.0625 339.980469 492.628906 338.144531 494.933594 C 336.664063 496.792969 336.640625 501.023438 338.097656 502.882813 C 339.667969 504.886719 342.667969 504.621094 343.835938 502.269531 C 344.34375 501.25 344.472656 500.039063 344.746094 499.027344 M 337.289063 504.839844 C 337.289063 506.390625 337.292969 507.847656 337.289063 509.308594 C 337.289063 511.335938 337.28125 511.34375 335.054688 511.007813 C 335.027344 510.515625 334.976563 509.996094 334.976563 509.472656 C 334.972656 504.199219 334.976563 498.925781 334.976563 493.652344 C 334.980469 491.804688 334.984375 491.804688 336.960938 491.964844 C 337.019531 492.363281 337.078125 492.78125 337.136719 493.203125 C 337.238281 493.207031 337.355469 493.253906 337.40625 493.214844 C 341.175781 490.179688 345.613281 491.5625 346.621094 496.308594 C 347.015625 498.148438 346.882813 500.269531 346.371094 502.089844 C 345.238281 506.105469 340.355469 507.316406 337.851563 505.019531 C 337.757813 504.933594 337.59375 504.933594 337.289063 504.839844 "/>
</g>
<path style=" stroke:none;fill-rule:nonzero;fill:rgb(13.299561%,11.799622%,12.199402%);fill-opacity:1;" d="M 134.351563 497.5 L 141.894531 497.5 C 141.722656 494.910156 140.234375 493.425781 138.015625 493.511719 C 135.847656 493.597656 134.355469 495.199219 134.351563 497.5 M 144.5 499.480469 L 134.269531 499.480469 C 134.144531 501.765625 135.230469 503.46875 137.101563 504.054688 C 138.9375 504.632813 140.289063 503.929688 141.722656 502.117188 C 142.140625 501.582031 143.253906 501.59375 144.15625 501.320313 C 144.039063 503.671875 142.367188 505.441406 140.144531 505.929688 C 134.296875 507.210938 130.609375 503.058594 131.914063 496.628906 C 132.367188 494.402344 133.609375 492.75 135.800781 492.007813 C 138.128906 491.222656 140.375 491.425781 142.300781 493.109375 C 144.167969 494.738281 144.449219 496.941406 144.5 499.480469 "/>
<path style=" stroke:none;fill-rule:nonzero;fill:rgb(13.299561%,11.799622%,12.199402%);fill-opacity:1;" d="M 196.855469 497.53125 C 196.898438 495.105469 195.335938 493.476563 193.097656 493.511719 C 190.875 493.542969 189.230469 495.316406 189.402344 497.53125 Z M 199.550781 499.425781 L 189.378906 499.425781 C 189.050781 501.53125 190.0625 503.289063 191.898438 503.980469 C 193.691406 504.65625 195.414063 504.0625 196.5 502.390625 C 197.15625 501.386719 197.15625 501.386719 199.246094 501.691406 C 199.121094 503.164063 198.3125 504.214844 197.179688 505.015625 C 193.160156 507.859375 187.597656 505.589844 186.867188 500.71875 C 186.636719 499.203125 186.734375 497.554688 187.074219 496.058594 C 187.714844 493.257813 190.539063 491.398438 193.429688 491.574219 C 196.558594 491.765625 198.828125 493.792969 199.285156 496.828125 C 199.40625 497.632813 199.453125 498.453125 199.550781 499.425781 "/>
<path style=" stroke:none;fill-rule:nonzero;fill:rgb(13.299561%,11.799622%,12.199402%);fill-opacity:1;" d="M 329.636719 497.519531 C 330.183594 495.542969 328.101563 493.53125 326.226563 493.5 C 323.96875 493.460938 322.257813 495.097656 322.253906 497.519531 Z M 332.328125 499.441406 L 322.101563 499.441406 C 321.996094 501.753906 323.105469 503.46875 324.972656 504.046875 C 326.792969 504.609375 328.355469 503.972656 329.476563 502.203125 C 330.046875 501.304688 330.117188 501.292969 331.992188 501.761719 C 331.855469 503.617188 330.363281 505.304688 328.355469 505.867188 C 323.523438 507.222656 319.695313 504.410156 319.605469 499.417969 C 319.589844 498.488281 319.589844 497.53125 319.777344 496.625 C 320.453125 493.433594 323.160156 491.371094 326.289063 491.566406 C 329.738281 491.78125 332.082031 494.210938 332.324219 497.835938 C 332.355469 498.3125 332.328125 498.792969 332.328125 499.441406 "/>
<path style=" stroke:none;fill-rule:nonzero;fill:rgb(13.299561%,11.799622%,12.199402%);fill-opacity:1;" d="M 278.144531 498.734375 L 278.4375 498.855469 C 278.476563 499.441406 278.464844 500.039063 278.5625 500.617188 C 278.894531 502.542969 280.285156 503.972656 281.996094 504.195313 C 283.730469 504.421875 285.355469 503.582031 286.058594 501.90625 C 286.90625 499.878906 286.960938 497.765625 286.007813 495.757813 C 284.75 493.105469 281.324219 492.65625 279.59375 495.007813 C 278.832031 496.046875 278.609375 497.480469 278.144531 498.734375 M 282.480469 506.152344 C 278.472656 506.125 275.996094 503.324219 275.992188 498.816406 C 275.992188 494.410156 278.589844 491.5625 282.59375 491.574219 C 286.496094 491.589844 289.140625 494.519531 289.089844 498.777344 C 289.035156 503.386719 286.53125 506.179688 282.480469 506.152344 "/>
<path style=" stroke:none;fill-rule:nonzero;fill:rgb(13.299561%,11.799622%,12.199402%);fill-opacity:1;" d="M 272.441406 499.152344 C 272.308594 499.09375 272.171875 499.03125 272.039063 498.972656 C 272.039063 498.578125 272.074219 498.183594 272.03125 497.792969 C 271.738281 495.144531 270.066406 493.464844 267.8125 493.535156 C 265.371094 493.605469 263.816406 495.617188 263.769531 498.765625 C 263.726563 501.851563 265.265625 504.164063 267.605469 504.15625 C 268.601563 504.152344 269.929688 503.800781 270.503906 503.109375 C 271.414063 502.011719 271.820313 500.492188 272.441406 499.152344 M 274.386719 498.867188 C 274.394531 504.09375 271.171875 506.933594 266.335938 505.953125 C 263.929688 505.46875 262.300781 503.980469 261.824219 501.632813 C 261.488281 499.988281 261.457031 498.195313 261.734375 496.542969 C 262.277344 493.316406 264.996094 491.378906 268.226563 491.585938 C 271.738281 491.8125 274.144531 494.132813 274.382813 497.542969 C 274.414063 497.980469 274.386719 498.425781 274.386719 498.867188 "/>
<path style=" stroke:none;fill-rule:nonzero;fill:rgb(13.299561%,11.799622%,12.199402%);fill-opacity:1;" d="M 299.238281 501.671875 C 300.019531 501.574219 300.644531 501.496094 301.257813 501.421875 C 302.574219 503.804688 303.671875 504.476563 305.847656 504.1875 C 307.050781 504.027344 308.105469 503.527344 308.257813 502.195313 C 308.414063 500.851563 307.320313 500.53125 306.296875 500.230469 C 304.835938 499.804688 303.355469 499.429688 301.933594 498.894531 C 300.28125 498.273438 299.542969 497.113281 299.566406 495.527344 C 299.585938 493.972656 300.535156 492.679688 302.101563 492.078125 C 303.828125 491.417969 305.554688 491.484375 307.300781 492.003906 C 309.007813 492.511719 309.886719 493.660156 310.140625 495.460938 C 309.421875 495.558594 308.753906 495.652344 308.097656 495.742188 C 306.90625 493.699219 305.445313 492.972656 303.488281 493.6875 C 302.835938 493.929688 302.085938 494.691406 301.96875 495.324219 C 301.890625 495.742188 302.765625 496.59375 303.375 496.835938 C 304.917969 497.453125 306.582031 497.765625 308.148438 498.332031 C 310.734375 499.269531 311.539063 501.835938 309.933594 504.035156 C 308.445313 506.074219 306.242188 506.261719 303.960938 506.074219 C 301.6875 505.886719 300.0625 504.824219 299.371094 502.5625 C 299.300781 502.335938 299.300781 502.089844 299.238281 501.671875 "/>
<path style=" stroke:none;fill-rule:nonzero;fill:rgb(13.299561%,11.799622%,12.199402%);fill-opacity:1;" d="M 359.585938 495.496094 C 358.800781 495.574219 358.132813 495.644531 357.492188 495.707031 C 356.253906 493.566406 354.585938 492.871094 352.574219 493.808594 C 352.015625 494.066406 351.40625 494.808594 351.355469 495.375 C 351.316406 495.820313 352.019531 496.570313 352.550781 496.777344 C 354.003906 497.347656 355.558594 497.667969 357.050781 498.148438 C 359.230469 498.855469 360.074219 499.839844 360.125 501.601563 C 360.179688 503.457031 359.089844 504.984375 357.113281 505.691406 C 355.1875 506.386719 353.238281 506.324219 351.351563 505.566406 C 349.691406 504.902344 348.972656 503.507813 348.585938 501.703125 C 349.378906 501.585938 350.039063 501.492188 350.6875 501.398438 C 351.921875 503.824219 353.351563 504.640625 355.582031 504.148438 C 356.652344 503.914063 357.578125 503.363281 357.695313 502.179688 C 357.820313 500.925781 356.835938 500.550781 355.839844 500.269531 C 354.472656 499.882813 353.089844 499.523438 351.742188 499.082031 C 349.898438 498.476563 348.921875 497.175781 348.960938 495.527344 C 349 493.886719 350.042969 492.5625 351.796875 491.988281 C 353.695313 491.363281 355.5625 491.476563 357.394531 492.273438 C 358.757813 492.867188 359.328125 493.972656 359.585938 495.496094 "/>
<path style=" stroke:none;fill-rule:nonzero;fill:rgb(13.299561%,11.799622%,12.199402%);fill-opacity:1;" d="M 183.511719 500.824219 C 184.257813 500.898438 184.886719 500.960938 185.503906 501.023438 C 185.625 502.921875 184.375 504.800781 182.480469 505.628906 C 178.71875 507.277344 174.550781 505.207031 173.941406 501.140625 C 173.664063 499.265625 173.832031 497.210938 174.296875 495.359375 C 174.894531 492.984375 177.183594 491.59375 179.878906 491.59375 C 182.125 491.589844 184.070313 492.320313 185.039063 494.558594 C 185.222656 494.976563 185.019531 495.5625 184.996094 496.070313 C 184.300781 496.023438 183.460938 496.714844 182.996094 495.558594 C 182.390625 494.0625 181.222656 493.375 179.601563 493.53125 C 178.042969 493.679688 176.667969 494.695313 176.417969 496.359375 C 176.171875 498.023438 176.152344 499.78125 176.417969 501.4375 C 176.695313 503.191406 178.125 504.160156 179.773438 504.214844 C 181.53125 504.273438 182.605469 503.484375 183.265625 501.640625 C 183.347656 501.417969 183.40625 501.179688 183.511719 500.824219 "/>
<path style=" stroke:none;fill-rule:nonzero;fill:rgb(13.299561%,11.799622%,12.199402%);fill-opacity:1;" d="M 315.992188 487.378906 L 315.992188 491.464844 C 316.648438 492.410156 318.457031 491.019531 318.355469 492.882813 C 318.269531 494.488281 316.792969 493.292969 316.023438 494.066406 C 316.023438 496.8125 315.917969 499.753906 316.117188 502.675781 C 316.15625 503.257813 317.367188 503.757813 318.039063 504.296875 C 318.148438 504.195313 318.257813 504.089844 318.367188 503.988281 C 318.4375 504.554688 318.507813 505.125 318.605469 505.9375 C 317.6875 505.9375 316.871094 505.992188 316.0625 505.929688 C 314.628906 505.816406 313.804688 505.019531 313.761719 503.5625 C 313.6875 500.910156 313.707031 498.257813 313.6875 495.601563 C 313.683594 495.070313 313.6875 494.535156 313.6875 493.929688 C 313.078125 493.800781 312.574219 493.695313 312 493.574219 L 312 492.035156 C 312.507813 491.929688 313.015625 491.828125 313.585938 491.707031 C 313.972656 490.085938 312.816406 487.652344 315.992188 487.378906 "/>
<path style=" stroke:none;fill-rule:nonzero;fill:rgb(13.299561%,11.799622%,12.199402%);fill-opacity:1;" d="M 291.625 491.929688 L 293.464844 491.929688 C 293.535156 492.394531 293.601563 492.863281 293.667969 493.304688 C 294.464844 492.765625 295.203125 491.972656 296.089844 491.753906 C 296.945313 491.539063 297.945313 491.917969 299.097656 492.058594 C 298.757813 493.011719 298.535156 493.640625 298.28125 494.363281 C 297.863281 494.269531 297.503906 494.167969 297.136719 494.109375 C 295.621094 493.867188 294.535156 494.410156 294.230469 495.90625 C 293.921875 497.433594 293.914063 499.023438 293.835938 500.585938 C 293.777344 501.71875 293.824219 502.851563 293.824219 503.984375 C 293.820313 506.015625 293.820313 506.015625 291.625 505.710938 "/>
<path style=" stroke:none;fill-rule:nonzero;fill:rgb(13.299561%,11.799622%,12.199402%);fill-opacity:1;" d="M 168.910156 491.984375 C 171.109375 491.761719 171.113281 491.761719 171.113281 493.664063 C 171.117188 497.109375 171.117188 500.558594 171.117188 504.003906 C 171.113281 506.027344 171.097656 506.039063 168.910156 505.679688 "/>
<path style=" stroke:none;fill-rule:nonzero;fill:rgb(2.69928%,40.79895%,20.799255%);fill-opacity:1;" d="M 170.917969 471.253906 C 172.316406 472.257813 173.570313 473.15625 174.953125 474.148438 C 174.339844 474.878906 173.882813 475.425781 173.410156 475.988281 C 172.171875 475.15625 170.972656 474.351563 169.703125 473.496094 C 170.070313 472.824219 170.414063 472.1875 170.917969 471.253906 "/>
<path style=" stroke:none;fill-rule:nonzero;fill:rgb(2.69928%,40.79895%,20.799255%);fill-opacity:1;" d="M 319.691406 476.621094 C 319.871094 475.851563 320.03125 475.15625 320.269531 474.140625 C 321.925781 474.796875 323.429688 475.394531 325.023438 476.023438 C 324.550781 476.875 324.21875 477.464844 323.871094 478.085938 C 322.496094 477.605469 321.175781 477.140625 319.691406 476.621094 "/>
<path style=" stroke:none;fill-rule:nonzero;fill:rgb(2.69928%,40.79895%,20.799255%);fill-opacity:1;" d="M 234.875 471.246094 C 236.308594 472.28125 237.589844 473.207031 238.996094 474.222656 C 238.246094 474.867188 237.707031 475.332031 237.140625 475.816406 C 236.132813 475.140625 234.957031 474.355469 233.679688 473.503906 C 234.007813 472.882813 234.34375 472.25 234.875 471.246094 "/>
<path style=" stroke:none;fill-rule:nonzero;fill:rgb(2.69928%,40.79895%,20.799255%);fill-opacity:1;" d="M 297.324219 477.191406 C 297.222656 477.941406 297.355469 478.828125 296.976563 479.308594 C 296.394531 480.046875 293.574219 479.964844 292.972656 479.203125 C 292.589844 478.71875 292.671875 477.871094 292.546875 477.191406 "/>
<path style=" stroke:none;fill-rule:nonzero;fill:rgb(13.299561%,11.799622%,12.199402%);fill-opacity:1;" d="M 168.773438 486.550781 C 169.699219 486.742188 170.613281 486.667969 170.949219 487.074219 C 171.277344 487.464844 171.253906 488.535156 170.925781 488.964844 C 170.644531 489.34375 169.730469 489.25 168.902344 489.398438 C 168.859375 488.445313 168.828125 487.703125 168.773438 486.550781 "/>
<path style=" stroke:none;fill-rule:nonzero;fill:rgb(13.299561%,11.799622%,12.199402%);fill-opacity:1;" d="M 229.78125 115.617188 C 226.996094 113.261719 223.671875 111.867188 220.210938 110.855469 C 212.398438 108.570313 204.449219 107.488281 196.417969 107.289063 L 173.785156 113.65625 C 173.785156 113.65625 143.15625 120.402344 127.324219 100.417969 C 111.492188 80.433594 114.085938 48.507813 114.085938 48.507813 C 114.085938 48.507813 113.640625 41.675781 113.078125 36.0625 C 111.871094 23.933594 106.433594 8.625 74.96875 6.84375 C 75.09375 6.886719 75.21875 6.929688 75.34375 6.972656 C 75.996094 7.191406 76.660156 7.386719 77.289063 7.65625 C 84.039063 10.519531 88.101563 15.386719 88.445313 22.902344 C 88.660156 27.671875 88.808594 32.449219 88.792969 37.226563 C 88.765625 46.003906 87.921875 54.707031 85.871094 63.265625 C 83.675781 72.414063 83.59375 81.605469 85.660156 90.757813 C 88.902344 105.105469 96.78125 116.421875 108.621094 125.03125 C 118.5625 132.257813 129.777344 136.601563 141.613281 139.507813 C 144.605469 140.242188 147.636719 140.824219 150.648438 141.476563 C 150.683594 141.363281 150.714844 141.246094 150.746094 141.132813 C 150.128906 140.890625 149.5 140.683594 148.898438 140.402344 C 143.824219 138.054688 138.664063 135.863281 133.714844 133.273438 C 129.914063 131.285156 126.503906 128.628906 123.921875 125.101563 C 122.132813 122.660156 120.949219 119.988281 121.5 116.859375 C 121.78125 115.257813 122.683594 114.476563 124.296875 114.714844 C 125.679688 114.921875 127.0625 115.390625 128.339844 115.972656 C 132.582031 117.90625 136.691406 120.15625 141.011719 121.898438 C 149.441406 125.300781 158.175781 126.460938 167.164063 124.433594 C 173.761719 122.945313 179.96875 120.351563 186.082031 117.53125 C 197.535156 112.246094 209.308594 111.3125 221.441406 114.699219 C 225.363281 115.789063 229.15625 117.191406 232.78125 119.246094 C 231.914063 117.894531 230.964844 116.617188 229.78125 115.617188 "/>
<path style=" stroke:none;fill-rule:nonzero;fill:rgb(22.399902%,22.698975%,23.498535%);fill-opacity:1;" d="M 113.078125 36.0625 C 113.636719 41.675781 114.085938 48.507813 114.085938 48.507813 C 114.085938 48.507813 111.492188 80.433594 127.324219 100.417969 C 143.15625 120.402344 173.78125 113.652344 173.78125 113.652344 L 196.417969 107.289063 C 193.449219 107.214844 190.472656 107.257813 187.488281 107.410156 C 180.011719 107.792969 172.644531 107.503906 165.390625 105.535156 C 159.390625 103.90625 153.523438 101.949219 148.296875 98.460938 C 143.617188 95.339844 141.792969 90.867188 142.28125 85.386719 C 142.617188 81.605469 145.460938 79.082031 149.234375 79.183594 C 152.859375 79.28125 155.902344 80.804688 158.425781 83.335938 C 161.761719 86.679688 165.527344 89.410156 169.691406 91.613281 C 174.984375 94.410156 180.589844 96.511719 186.59375 96.144531 C 191.710938 95.832031 196.769531 94.566406 201.847656 93.699219 C 202.371094 93.609375 202.867188 93.367188 203.660156 93.101563 C 201.011719 92.847656 198.734375 92.789063 196.515625 92.386719 C 181.679688 89.6875 170.910156 81.296875 164.515625 67.878906 C 159.171875 56.664063 154.886719 44.953125 149.957031 33.535156 C 141.371094 13.648438 126.972656 1.421875 104.699219 0.0976563 C 94.15625 -0.527344 84.101563 2.03125 74.308594 5.726563 C 73.96875 5.855469 73.65625 6.054688 73.230469 6.269531 C 73.886719 6.488281 74.4375 6.667969 74.96875 6.84375 C 106.433594 8.625 111.871094 23.933594 113.078125 36.0625 "/>
<path style=" stroke:none;fill-rule:nonzero;fill:rgb(100%,100%,100%);fill-opacity:1;" d="M 100.046875 16.941406 C 100.070313 18.777344 101.507813 20.222656 103.3125 20.222656 C 105.183594 20.222656 106.679688 18.738281 106.679688 16.878906 C 106.679688 14.957031 105.257813 13.527344 103.347656 13.535156 C 101.488281 13.539063 100.023438 15.050781 100.046875 16.941406 "/>
</g>
</svg>
