<svg xmlns="http://www.w3.org/2000/svg" width="939" height="471" fill="none"><g clip-path="url(#a)"><g filter="url(#b)"><g filter="url(#c)"><path d="M508.006 608C35.098 417.881 16.818-4.247-5.814-106.522L523.802 18.423c-83.346 76.505-163.106 245.422 267.844 435.174C1253.7 657.046 1231.83 1053.44 1187.67 1278.93l-327.874-58.11c29.639-137.72 8.892-467.819-351.79-612.82z" fill="url(#d)" fill-opacity=".6"/></g></g><mask id="f" style="mask-type:alpha" maskUnits="userSpaceOnUse" x="-6" y="-107" width="1216" height="1386"><path d="M508.005 608.001C35.097 417.882 16.817-4.246-5.815-106.521L523.8 18.424c-83.346 76.505-163.106 245.422 267.844 435.174C1253.7 657.046 1231.83 1053.44 1187.67 1278.93l-327.874-58.11c29.638-137.72 8.891-467.818-351.791-612.819z" fill="url(#e)" fill-opacity=".6"/></mask><g mask="url(#f)"><g filter="url(#g)"><path d="M1092.65 748.853c-106.622 0-193.058-87.555-193.058-195.561 0-108.005 97.764-298.829 204.388-298.829 106.62 0 181.73 190.824 181.73 298.829 0 108.006-86.43 195.561-193.06 195.561z" fill="#CEFFC6"/></g><g filter="url(#h)"><path d="M331.69 328.363c75.395 75.394 74.603 198.425-1.768 274.796-76.372 76.371-280.434 142.175-355.828 66.78-75.395-75.394 6.428-263.437 82.8-339.808 76.371-76.371 199.401-77.163 274.796-1.768z" fill="#CEFFC6"/></g></g></g><defs><filter id="b" x="-115.389" y="-216.097" width="1434.45" height="1604.61" filterUnits="userSpaceOnUse" color-interpolation-filters="sRGB"><feFlood flood-opacity="0" result="BackgroundImageFix"/><feBlend in="SourceGraphic" in2="BackgroundImageFix" result="shape"/><feGaussianBlur stdDeviation="54.787" result="effect1_foregroundBlur_1097_1314"/></filter><filter id="c" x="-18.92" y="-119.628" width="1241.52" height="1411.67" filterUnits="userSpaceOnUse" color-interpolation-filters="sRGB"><feFlood flood-opacity="0" result="BackgroundImageFix"/><feGaussianBlur in="BackgroundImageFix" stdDeviation="6.553"/><feComposite in2="SourceAlpha" operator="in" result="effect1_backgroundBlur_1097_1314"/><feBlend in="SourceGraphic" in2="effect1_backgroundBlur_1097_1314" result="shape"/></filter><filter id="g" x="570.869" y="-74.26" width="1043.57" height="1151.84" filterUnits="userSpaceOnUse" color-interpolation-filters="sRGB"><feFlood flood-opacity="0" result="BackgroundImageFix"/><feGaussianBlur in="BackgroundImageFix" stdDeviation="7.827"/><feComposite in2="SourceAlpha" operator="in" result="effect1_backgroundBlur_1097_1314"/><feBlend in="SourceGraphic" in2="effect1_backgroundBlur_1097_1314" result="shape"/><feGaussianBlur stdDeviation="164.362" result="effect2_foregroundBlur_1097_1314"/></filter><filter id="h" x="-301.069" y="27.092" width="934.029" height="921.388" filterUnits="userSpaceOnUse" color-interpolation-filters="sRGB"><feFlood flood-opacity="0" result="BackgroundImageFix"/><feGaussianBlur in="BackgroundImageFix" stdDeviation="7.827"/><feComposite in2="SourceAlpha" operator="in" result="effect1_backgroundBlur_1097_1314"/><feBlend in="SourceGraphic" in2="effect1_backgroundBlur_1097_1314" result="shape"/><feGaussianBlur stdDeviation="122.619" result="effect2_foregroundBlur_1097_1314"/></filter><linearGradient id="d" x1="352.817" y1="117.349" x2="453.211" y2="1156.63" gradientUnits="userSpaceOnUse"><stop offset="0" stop-color="#fff"/><stop offset=".5" stop-color="#69E9FF"/><stop offset="1" stop-color="#26DDFD"/><stop offset="1" stop-color="#26DDFD"/></linearGradient><linearGradient id="e" x1="352.816" y1="117.35" x2="453.21" y2="1156.63" gradientUnits="userSpaceOnUse"><stop offset="0" stop-color="#fff"/><stop offset=".5" stop-color="#69E9FF"/><stop offset="1" stop-color="#26DDFD" stop-opacity=".2"/></linearGradient><clipPath id="a"><path fill="#fff" d="M0 0h939v471H0z"/></clipPath></defs></svg>