<!DOCTYPE svg PUBLIC "-//W3C//DTD SVG 1.1//EN" "http://www.w3.org/Graphics/SVG/1.1/DTD/svg11.dtd">
<!-- Uploaded to: SVG Repo, www.svgrepo.com, Transformed by: SVG Repo Mixer Tools -->
<svg fill="#000000" height="800px" width="800px" version="1.1" xmlns="http://www.w3.org/2000/svg" viewBox="0 0 463 463" xmlns:xlink="http://www.w3.org/1999/xlink" enable-background="new 0 0 463 463">
<g id="SVGRepo_bgCarrier" stroke-width="0"/>
<g id="SVGRepo_tracerCarrier" stroke-linecap="round" stroke-linejoin="round"/>
<g id="SVGRepo_iconCarrier"> <g> <path d="m453.774,387.168l-149.341-149.342c-4.269-4.268-9.468-7.049-14.951-8.351l73.38-73.38c0.085-0.085 0.349-0.132 0.669-0.049 27.27,6.953 56.362-0.697 75.919-19.974 13.888-13.689 22.238-31.933 23.515-51.368 0.433-6.586-3.157-12.596-9.145-15.31-5.915-2.679-12.709-1.438-17.312,3.165l-25.227,25.227-36.258-9.715-9.715-36.258 25.226-25.226c4.603-4.603 5.845-11.399 3.165-17.316-2.711-5.983-8.721-9.552-15.293-9.144-19.231,1.261-37.333,9.465-50.972,23.103-19.911,19.911-27.805,49.237-20.602,76.535 0.086,0.327 0.042,0.595-0.044,0.68l-97.868,97.867-146.442-146.44c4.346-8.787 2.886-19.741-4.42-27.047-0.35-0.35-0.732-0.664-1.144-0.938l-33.94-22.626c-2.974-1.985-6.935-1.591-9.464,0.936l-11.313,11.314c-2.528,2.528-2.921,6.489-0.937,9.463l22.627,33.941c0.274,0.411 0.588,0.794 0.937,1.144 4.582,4.581 10.599,6.871 16.617,6.871 3.58,0 7.153-0.83 10.43-2.452l146.442,146.442-98.078,98.078c-0.085,0.085-0.348,0.132-0.67,0.049-27.275-6.955-56.364,0.699-75.919,19.975-13.888,13.69-22.239,31.932-23.516,51.368-0.432,6.587 3.158,12.597 9.147,15.311 5.914,2.679 12.708,1.436 17.31-3.166l25.227-25.227 36.257,9.716 9.715,36.257-25.225,25.225c-4.603,4.603-5.845,11.4-3.165,17.316 2.564,5.661 8.073,9.179 14.229,9.178 0.352,0 0.708-0.012 1.063-0.034 19.231-1.26 37.333-9.464 50.972-23.102 19.91-19.911 27.805-49.237 20.602-76.536-0.086-0.326-0.042-0.594 0.044-0.679l73.153-73.153c1.332,5.609 4.186,10.758 8.365,14.938l149.341,149.342c6.141,6.141 14.207,9.211 22.273,9.211s16.133-3.07 22.274-9.211l22.059-22.06c5.95-5.949 9.226-13.859 9.226-22.274 0.003-8.415-3.273-16.325-9.223-22.274zm-417.883-339.288l-18.74-28.11 2.618-2.618 28.11,18.739c2.879,3.336 2.737,8.396-0.428,11.561-3.165,3.165-8.225,3.307-11.56,0.428zm223.994,189.946l-22.059,22.06c-0.214,0.214-0.416,0.435-0.622,0.653l-6.046-6.045c-1.606-1.606-2.49-3.741-2.49-6.012 0-1.964 0.664-3.824 1.882-5.331l12.602-12.602c1.506-1.217 3.366-1.881 5.329-1.881 2.27,0 4.404,0.884 6.01,2.49l6.046,6.046-.011,.011c-0.213,0.204-0.431,0.401-0.641,0.611zm57.509-126.772c3.87-3.87 5.38-9.662 3.941-15.114-5.846-22.155 0.555-45.951 16.705-62.101 11.064-11.063 25.748-17.72 41.345-18.741 0.197-0.016 0.471-0.031 0.65,0.364 0.129,0.284 0.049,0.363-0.108,0.521l-28.287,28.286c-1.895,1.896-2.635,4.656-1.941,7.245l11.957,44.623c0.694,2.588 2.715,4.609 5.304,5.303l44.623,11.956c2.59,0.694 5.35-0.046 7.244-1.94l28.289-28.288c0.162-0.163 0.236-0.235 0.514-0.109 0.401,0.182 0.382,0.46 0.369,0.664-1.035,15.764-7.81,30.562-19.077,41.667-15.837,15.61-39.471,21.788-61.683,16.122-5.492-1.398-11.092,0.087-14.982,3.977l-81.11,81.11-6.046-6.045c-2.076-2.077-4.476-3.711-7.081-4.868l81.606-81.606c2.929-2.93 2.929-7.678 0-10.607-2.929-2.928-7.678-2.928-10.606,0l-97.506,97.434-11.984-11.984 97.864-97.869zm-171.693,240.988c-3.87,3.87-5.38,9.662-3.941,15.113 5.846,22.156-0.555,45.952-16.705,62.102-11.064,11.064-25.748,17.72-41.346,18.74-0.197,0.016-0.469,0.032-0.649-0.364-0.128-0.283-0.049-0.362 0.108-0.52l28.287-28.287c1.895-1.896 2.635-4.656 1.941-7.245l-11.957-44.622c-0.694-2.588-2.715-4.609-5.303-5.303l-44.622-11.957c-0.642-0.172-1.294-0.256-1.941-0.256-1.963,0-3.879,0.771-5.304,2.196l-28.29,28.289c-0.161,0.16-0.234,0.235-0.513,0.109-0.401-0.182-0.382-0.473-0.37-0.665 1.036-15.764 7.811-30.562 19.078-41.668 15.835-15.609 39.471-21.788 61.682-16.122 5.494,1.4 11.094-0.086 14.983-3.977l98.079-98.079 11.984,11.984-97.434,97.506c-2.929,2.93-2.929,7.678 0,10.607 1.464,1.464 3.384,2.196 5.303,2.196 1.919,0 3.839-0.732 5.303-2.196l81.606-81.606c1.158,2.606 2.791,5.005 4.868,7.082l6.046,6.046-80.893,80.897zm297.467,69.066l-22.059,22.06c-6.433,6.433-16.901,6.435-23.334,0l-149.342-149.342c-3.116-3.116-4.833-7.259-4.833-11.666 0-4.256 1.613-8.254 4.527-11.331l22.694-22.693c3.174-3.009 7.251-4.528 11.338-4.528 4.225,0 8.451,1.608 11.667,4.825l149.341,149.342c3.116,3.116 4.833,7.259 4.833,11.666 0,4.408-1.716,8.551-4.832,11.667z"/> <path d="m281.182,270.576c-2.929-2.928-7.678-2.928-10.606,0-2.929,2.93-2.929,7.678 0,10.607l138.934,138.935c1.464,1.464 3.384,2.196 5.303,2.196s3.839-0.732 5.303-2.196c2.929-2.93 2.929-7.678 0-10.607l-138.934-138.935z"/> </g> </g>
</svg>